<svg version="1.2" xmlns="http://www.w3.org/2000/svg" viewBox="0 0 434 127" width="615" height="180"><style>.a{fill:#fbf7f7}</style><path class="a" d="m25.4 99v-87.5h11.8v37l39.3-37h15.2l-43.4 40.8 46.5 46.7h-15.6l-42-42.1v42.1zm-3.2 0v-87.5h11.9v37l39.2-37h15.3l-43.5 40.8 46.6 46.7h-15.6l-42-42.1v42.1z"/><path class="a" d="m256.7 66.7l-16.1-43.5-16.1 43.5zm-56.1 32.3l33.4-87.5h13.4l33.3 87.5h-12.3l-8-22.4h-39.4l-8 22.4zm53.1-32.3l-16.2-43.5-16 43.5zm-56.2 32.3l33.4-87.5h13.4l33.4 87.5h-12.3l-8-22.4h-39.5l-7.9 22.4z"/><path class="a" d="m136.1 41.3v9.6q-1.5-1-3.4-1.4-1.9-0.4-4.1-0.4-7.9 0-12.2 5.2-4.2 5.1-4.2 14.7v30h-9.4v-56.9h9.4v8.9q3-5.2 7.7-7.7 4.7-2.5 11.5-2.5 0.9 0 2.1 0.1 1.2 0.1 2.6 0.4zm-2.8 0l0.1 9.6q-1.6-1-3.5-1.4-1.8-0.4-4-0.4-8 0-12.2 5.2-4.2 5.1-4.2 14.7v30h-9.4v-56.9h9.4v8.9q2.9-5.2 7.6-7.7 4.8-2.5 11.5-2.5 1 0 2.1 0.1 1.2 0.1 2.6 0.4z"/><path class="a" d="m165.2 47.7q-7.5 0-11.9 5.9-4.3 5.8-4.3 16 0 10.2 4.3 16.1 4.3 5.9 11.9 5.9 7.5 0 11.8-5.9 4.4-5.9 4.4-16.1 0-10.1-4.4-16-4.3-5.9-11.8-5.9zm0-7.9q12.2 0 19.2 7.9 6.9 7.9 6.9 21.9 0 14-6.9 22-7 7.9-19.2 7.9-12.2 0-19.2-7.9-6.9-8-6.9-22 0-14 6.9-21.9 7-7.9 19.2-7.9zm-2.7 7.9q-7.5 0-11.9 5.9-4.4 5.8-4.4 16 0 10.2 4.3 16.1 4.4 5.9 12 5.9 7.4 0 11.8-5.9 4.4-5.9 4.4-16.1 0-10.1-4.4-16-4.4-5.9-11.8-5.9zm0-7.9q12.2 0 19.1 7.9 7 7.9 7 21.9 0 14-7 22-6.9 7.9-19.1 7.9-12.3 0-19.2-7.9-6.9-8-6.9-22 0-14 6.9-21.9 6.9-7.9 19.2-7.9z"/><path class="a" d="m287.2 77.6v-34.5h9.4v34.1q0 8.1 3.1 12.1 3.1 4 9.4 4 7.6 0 12-4.8 4.4-4.8 4.4-13.1v-32.3h9.3v56.9h-9.3v-8.7q-3.4 5.1-7.9 7.7-4.5 2.5-10.4 2.5-9.8 0-14.9-6.1-5.1-6.1-5.1-17.8zm23.5-35.8zm-26.2 35.8v-34.5h9.3v34.1q0 8.1 3.2 12.1 3.1 4 9.4 4 7.6 0 11.9-4.8 4.5-4.8 4.5-13.1v-32.3h9.3v56.9h-9.3v-8.7q-3.4 5.1-8 7.7-4.4 2.5-10.4 2.5-9.8 0-14.9-6.1-5-6.1-5-17.8zm23.5-35.8z"/><path class="a" d="m352.2 103v-79h9.3v79zm-2.7 0v-79h9.3v79z"/><path class="a" d="m416.3 73.4h-9.3q-11.3 0-15.7 2.6-4.3 2.6-4.3 8.8 0 5 3.2 8 3.3 2.9 8.9 2.9 7.8 0 12.5-5.5 4.7-5.6 4.7-14.7zm9.4-3.9v32.5h-9.4v-8.7q-3.2 5.2-8 7.7-4.7 2.5-11.6 2.5-8.8 0-14-4.9-5.1-4.9-5.1-13.2 0-9.6 6.4-14.4 6.5-4.9 19.2-4.9h13.1v-0.9q0-6.5-4.3-10-4.2-3.5-11.8-3.5-4.9 0-9.5 1.1-4.7 1.2-8.9 3.5v-8.6q5.1-2 9.9-2.9 4.9-1.1 9.4-1.1 12.4 0 18.5 6.4 6.1 6.4 6.1 19.4zm-12.1 3.9h-9.3q-11.3 0-15.7 2.6-4.4 2.6-4.4 8.8 0 5 3.3 7.9 3.3 2.9 8.9 2.9 7.8 0 12.4-5.5 4.8-5.5 4.8-14.6zm9.3-3.9v32.5h-9.3v-8.7q-3.2 5.2-8 7.7-4.8 2.4-11.7 2.4-8.7 0-13.9-4.8-5.1-5-5.1-13.2 0-9.6 6.4-14.5 6.4-4.8 19.2-4.8h13.1v-1q0-6.4-4.3-9.9-4.2-3.6-11.9-3.6-4.9 0-9.5 1.2-4.6 1.2-8.9 3.5v-8.6q5.2-2 10-3 4.8-1 9.4-1 12.3 0 18.4 6.4 6.1 6.4 6.1 19.4z"/></svg>